<svg width="37" height="37" viewBox="0 0 37 37" fill="none" xmlns="http://www.w3.org/2000/svg">
<rect width="37" height="37" rx="6" fill="#D9D9D9"/>
<path d="M26.7368 11.2575C26.5659 11.1692 26.3996 11.0724 26.2385 10.9674C25.7698 10.6576 25.3401 10.2925 24.9586 9.88004C24.0041 8.78791 23.6476 7.67996 23.5163 6.90424H23.5216C23.4119 6.26035 23.4572 5.84375 23.4641 5.84375H19.1167V22.6544C19.1167 22.8801 19.1167 23.1032 19.1072 23.3236C19.1072 23.351 19.1045 23.3763 19.103 23.4059C19.103 23.418 19.103 23.4307 19.1003 23.4433C19.1003 23.4465 19.1003 23.4497 19.1003 23.4528C19.0545 24.056 18.8612 24.6386 18.5373 25.1495C18.2134 25.6604 17.769 26.0839 17.243 26.3827C16.6949 26.6946 16.0749 26.8582 15.4443 26.8573C13.4187 26.8573 11.7771 25.2057 11.7771 23.1659C11.7771 21.1262 13.4187 19.4745 15.4443 19.4745C15.8277 19.4742 16.2087 19.5345 16.5733 19.6533L16.5786 15.2268C15.4719 15.0838 14.3476 15.1718 13.2765 15.4851C12.2055 15.7984 11.2111 16.3303 10.3559 17.0472C9.6066 17.6982 8.97664 18.4751 8.49439 19.3427C8.31088 19.6591 7.61848 20.9305 7.53463 22.994C7.48189 24.1653 7.83363 25.3787 8.00133 25.8802V25.8907C8.1068 26.186 8.51549 27.1938 9.18152 28.0433C9.71859 28.7248 10.3531 29.3234 11.0647 29.82V29.8094L11.0752 29.82C13.1798 31.2501 15.5133 31.1563 15.5133 31.1563C15.9173 31.1399 17.2704 31.1563 18.8071 30.428C20.5115 29.6206 21.4818 28.4178 21.4818 28.4178C22.1017 27.699 22.5946 26.8799 22.9394 25.9957C23.3328 24.9615 23.4641 23.7212 23.4641 23.2255V14.3071C23.5168 14.3387 24.2193 14.8033 24.2193 14.8033C24.2193 14.8033 25.2312 15.452 26.8101 15.8744C27.9428 16.1749 29.469 16.2382 29.469 16.2382V11.9224C28.9342 11.9804 27.8484 11.8117 26.7368 11.2575Z" fill="white"/>
</svg>
